<svg xmlns="http://www.w3.org/2000/svg" width="50" height="40" viewBox="0 0 50 40"><defs><style>.a{fill:#212d3d;}</style></defs><path class="a" d="M47.5,0h-10A2.5,2.5,0,0,0,35,2.5v10A2.5,2.5,0,0,0,37.5,15h10A2.5,2.5,0,0,0,50,12.5V2.5A2.5,2.5,0,0,0,47.5,0ZM46.25,11.016a.23.23,0,0,1-.234.234H38.984a.23.23,0,0,1-.234-.234V3.984a.23.23,0,0,1,.234-.234h7.031a.23.23,0,0,1,.234.234ZM32.5,10V5H15V2.5A2.5,2.5,0,0,0,12.5,0H2.5A2.5,2.5,0,0,0,0,2.5v10A2.5,2.5,0,0,0,2.5,15H9.977L15.7,25l.008-.008A4.985,4.985,0,0,1,20,22.5h.023L15,13.711V10ZM3.984,11.25a.23.23,0,0,1-.234-.234V3.984a.23.23,0,0,1,.234-.234h7.031a.23.23,0,0,1,.234.234v7.031a.23.23,0,0,1-.234.234ZM30,25H20a2.5,2.5,0,0,0-2.5,2.5v10A2.5,2.5,0,0,0,20,40H30a2.5,2.5,0,0,0,2.5-2.5v-10A2.5,2.5,0,0,0,30,25ZM28.75,36.016a.23.23,0,0,1-.234.234H21.484a.23.23,0,0,1-.234-.234V28.984a.23.23,0,0,1,.234-.234h7.031a.23.23,0,0,1,.234.234Z"/></svg>