<svg xmlns="http://www.w3.org/2000/svg" width="35.712" height="40" viewBox="0 0 35.712 40"><defs><style>.a{fill:#212d3d;}</style></defs><g transform="translate(0 0.013)"><g transform="translate(0 -0.013)"><path class="a" d="M30,161.25v2.5a1.254,1.254,0,0,1-1.25,1.25H27.343a10.843,10.843,0,0,0-2.351.258,2.36,2.36,0,0,0-1.852,2.32v.477c-.1.055-.2.117-.3.172l-.406-.234a2.378,2.378,0,0,0-2.937.445,10.662,10.662,0,0,0-2.352,4.086,2.37,2.37,0,0,0,1.078,2.766l.414.234v.352l-.414.234a2.37,2.37,0,0,0-1.078,2.766c.1.336.227.664.359.992V185a2.5,2.5,0,0,1-5,0v-5.25A12.5,12.5,0,0,1,2.5,167.5V165H1.25A1.254,1.254,0,0,1,0,163.75v-2.5A1.254,1.254,0,0,1,1.25,160h27.5A1.254,1.254,0,0,1,30,161.25Z" transform="translate(0 -147.499)"/><path class="a" d="M261,2.488v8.125h-5V2.543a2.542,2.542,0,0,1,2.43-2.555A2.5,2.5,0,0,1,261,2.418Z" transform="translate(-236.001 0.013)"/><path class="a" d="M257.988,258.992l1.5.867a.431.431,0,0,1,.2.492,8.68,8.68,0,0,1-1.93,3.336.417.417,0,0,1-.523.078l-1.5-.867a6.919,6.919,0,0,1-2.141,1.242v1.734a.434.434,0,0,1-.328.414,8.9,8.9,0,0,1-3.851,0,.425.425,0,0,1-.328-.414V264.14a6.768,6.768,0,0,1-2.141-1.242l-1.492.867a.427.427,0,0,1-.523-.078,8.781,8.781,0,0,1-1.93-3.336.431.431,0,0,1,.2-.492l1.5-.867a6.942,6.942,0,0,1,0-2.476l-1.5-.867a.431.431,0,0,1-.2-.492,8.68,8.68,0,0,1,1.93-3.336.416.416,0,0,1,.523-.078l1.5.867a6.919,6.919,0,0,1,2.141-1.242v-1.742a.434.434,0,0,1,.328-.414,8.9,8.9,0,0,1,3.851,0,.425.425,0,0,1,.328.414v1.734a6.768,6.768,0,0,1,2.141,1.242l1.5-.867a.427.427,0,0,1,.523.078,8.781,8.781,0,0,1,1.93,3.336.431.431,0,0,1-.2.492l-1.5.867a7.171,7.171,0,0,1-.008,2.484Zm-3.82-1.242a2.828,2.828,0,1,0-2.828,2.836A2.822,2.822,0,0,0,254.168,257.75Z" transform="translate(-223.997 -229.546)"/><path class="a" d="M69,2.555v8.07H64V2.5A2.5,2.5,0,0,1,66.5,0h.07A2.537,2.537,0,0,1,69,2.555Z" transform="translate(-59 0.001)"/></g></g></svg>