<svg xmlns="http://www.w3.org/2000/svg" width="50.073" height="40" viewBox="0 0 50.073 40"><defs><style>.a{fill:#212d3d;}</style></defs><g transform="translate(0 -0.642)"><g transform="translate(0 0.642)"><path class="a" d="M44.439,29.376a5.608,5.608,0,0,0-3.849,1.541l-6.118-3.5a8.694,8.694,0,0,0-8.184-11.814,8.5,8.5,0,0,0-1.909.227l-2.519-5.4a5.608,5.608,0,1,0-3.708,1.424,1.938,1.938,0,0,0,.211-.023l2.621,5.61a8.741,8.741,0,1,0,11.47,13.144l6.431,3.677a5.834,5.834,0,0,0-.078.743,5.633,5.633,0,1,0,5.633-5.633ZM18.151,8.095a1.878,1.878,0,1,1,1.878-1.878A1.878,1.878,0,0,1,18.151,8.095Zm8.137,21.281A5.007,5.007,0,1,1,31.3,24.369,5.007,5.007,0,0,1,26.288,29.376Zm18.151,7.511a1.878,1.878,0,1,1,1.878-1.878,1.878,1.878,0,0,1-1.878,1.878ZM40.183,16.451l-1.5-2-3.755,2.817,1.5,2Zm4.882-.845A5.007,5.007,0,1,0,40.058,10.6,5.007,5.007,0,0,0,45.065,15.606ZM11.892,25.62h3.755v-2.5H11.892ZM5.007,19.361a5.007,5.007,0,1,0,5.007,5.007A5.007,5.007,0,0,0,5.007,19.361Z" transform="translate(0 -0.642)"/></g></g></svg>