<svg xmlns="http://www.w3.org/2000/svg" width="45" height="40" viewBox="0 0 45 40"><defs><style>.a{fill:#212d3d;}</style></defs><path class="a" d="M41.25,0H3.75A3.751,3.751,0,0,0,0,3.75v22.5A3.751,3.751,0,0,0,3.75,30h37.5A3.751,3.751,0,0,0,45,26.25V3.75A3.751,3.751,0,0,0,41.25,0Zm-.469,26.25H4.219a.47.47,0,0,1-.469-.469V4.219a.47.47,0,0,1,.469-.469H40.781a.47.47,0,0,1,.469.469V25.781A.47.47,0,0,1,40.781,26.25ZM37.5,38.125A1.874,1.874,0,0,1,35.633,40H9.375a1.875,1.875,0,1,1,0-3.75h7.711l1.531-3.734a.934.934,0,0,1,.891-.641h6.148a.934.934,0,0,1,.891.641l1.375,3.734h7.7A1.874,1.874,0,0,1,37.5,38.117Z"/></svg>